<?xml version="1.0" encoding="UTF-8" standalone="no"?>
<svg xmlns:ffdec="https://www.free-decompiler.com/flash" xmlns:xlink="http://www.w3.org/1999/xlink" ffdec:objectType="frame" height="1080.0px" width="1920.0px" xmlns="http://www.w3.org/2000/svg">
  <g transform="matrix(1.0, 0.0, 0.0, 1.0, 0.0, 0.0)">
    <rect fill="#ffffff" height="1080.0px" width="1920.0px"/>
    <use ffdec:characterId="1" height="1122.25" transform="matrix(1.0, 0.0, 0.0, 1.0, 0.0, 0.0)" width="2046.6" xlink:href="#shape0"/>
  </g>
  <defs>
    <g id="shape0">
      <path d="M1926.5 1090.3 L-8.0 1090.3 -8.0 -8.0 1926.5 -8.0 1926.5 1090.3" fill="#000000" fill-rule="evenodd" stroke="none"/>
      <path d="M1926.5 1090.3 L-8.0 1090.3 -8.0 -8.0 1926.5 -8.0 1926.5 1090.3 Z" fill="none" stroke="#000000" stroke-linecap="round" stroke-linejoin="round" stroke-width="1.0"/>
      <path d="M434.2 -8.0 L1490.35 -8.0 1490.35 1090.3 434.2 1090.3 434.2 -8.0" fill="#000000" fill-rule="evenodd" stroke="none"/>
      <path d="M434.2 -8.0 L1490.35 -8.0 1490.35 1090.3 434.2 1090.3 434.2 -8.0 Z" fill="none" stroke="#ffffff" stroke-linecap="round" stroke-linejoin="round" stroke-width="1.0"/>
      <path d="M-6.0 -15.5 Q1.55 -15.5 21.75 4.2 33.95 16.05 67.85 53.05 105.05 93.7 127.0 115.9 163.45 152.85 194.0 177.5 235.05 210.7 345.65 290.8 L411.95 339.1 Q439.5 359.4 439.5 361.0 439.25 369.5 432.0 369.5 412.3 369.5 311.05 291.45 280.8 268.15 232.65 229.55 L175.5 184.0 Q151.85 165.85 124.7 135.45 95.9 101.5 82.0 86.5 73.85 77.75 26.55 34.3 -13.5 -2.55 -13.5 -5.75 -13.5 -15.5 -6.0 -15.5" fill="#ffffff" fill-rule="evenodd" stroke="none"/>
      <path d="M-6.0 -15.5 Q1.55 -15.5 21.75 4.2 33.95 16.05 67.85 53.05 105.05 93.7 127.0 115.9 163.45 152.85 194.0 177.5 235.05 210.7 345.65 290.8 L411.95 339.1 Q439.5 359.4 439.5 361.0 439.25 369.5 432.0 369.5 412.3 369.5 311.05 291.45 280.8 268.15 232.65 229.55 L175.5 184.0 Q151.85 165.85 124.7 135.45 95.9 101.5 82.0 86.5 73.85 77.75 26.55 34.3 -13.5 -2.55 -13.5 -5.75 -13.5 -15.5 -6.0 -15.5 Z" fill="none" stroke="#ffffff" stroke-linecap="round" stroke-linejoin="round" stroke-width="1.0"/>
      <path d="M199.0 193.75 Q199.0 201.25 98.45 234.55 47.0 251.55 -16.0 271.0 -18.9 270.05 -19.6 269.4 -21.0 268.1 -21.0 264.75 -21.0 260.05 64.0 230.65 135.6 205.8 191.0 189.0 L198.0 190.0 198.5 190.55 Q199.0 190.8 199.0 193.75" fill="#ffffff" fill-rule="evenodd" stroke="none"/>
      <path d="M199.0 193.75 Q199.0 201.25 98.45 234.55 47.0 251.55 -16.0 271.0 -18.9 270.05 -19.6 269.4 -21.0 268.1 -21.0 264.75 -21.0 260.05 64.0 230.65 135.6 205.8 191.0 189.0 L198.0 190.0 198.5 190.55 Q199.0 190.8 199.0 193.75 Z" fill="none" stroke="#ffffff" stroke-linecap="round" stroke-linejoin="round" stroke-width="1.0"/>
      <path d="M202.25 572.4 Q176.5 563.35 123.0 554.0 85.65 547.55 38.85 536.9 -29.0 521.45 -29.0 514.75 -29.0 510.8 -28.35 510.0 -27.6 509.0 -24.0 509.0 -6.45 509.0 106.45 538.95 216.2 568.05 276.5 588.0 317.45 601.6 366.2 627.65 L405.2 649.05 Q428.15 661.75 443.0 669.0 441.75 670.75 440.4 673.3 438.95 675.0 435.0 675.0 416.7 663.9 385.45 648.05 322.7 616.35 256.0 593.0 241.75 588.05 225.45 581.4 208.95 574.7 202.25 572.4" fill="#ffffff" fill-rule="evenodd" stroke="none"/>
      <path d="M202.25 572.4 Q176.5 563.35 123.0 554.0 85.65 547.55 38.85 536.9 -29.0 521.45 -29.0 514.75 -29.0 510.8 -28.35 510.0 -27.6 509.0 -24.0 509.0 -6.45 509.0 106.45 538.95 216.2 568.05 276.5 588.0 317.45 601.6 366.2 627.65 L405.2 649.05 Q428.15 661.75 443.0 669.0 441.75 670.75 440.4 673.3 438.95 675.0 435.0 675.0 416.7 663.9 385.45 648.05 322.7 616.35 256.0 593.0 241.75 588.05 225.45 581.4 208.95 574.7 202.25 572.4 Z" fill="none" stroke="#ffffff" stroke-linecap="round" stroke-linejoin="round" stroke-width="1.0"/>
      <path d="M436.65 676.8 Q436.1 673.9 436.05 670.35 L436.1 667.25 Q435.7 663.85 436.15 660.9 436.95 655.1 441.1 655.1 446.1 655.1 448.1 666.45 449.1 672.2 449.1 678.1 L448.85 682.65 Q447.9 686.1 444.1 686.1 438.3 686.1 436.65 676.8" fill="#000000" fill-rule="evenodd" stroke="none"/>
      <path d="M437.3 668.0 L437.55 673.25 Q437.55 676.1 436.2 676.1 434.85 676.1 434.8 674.75 L435.05 673.25 434.55 664.8 Q434.55 662.85 435.8 662.85 436.85 662.85 437.3 668.0" fill="#000000" fill-rule="evenodd" stroke="none"/>
      <path d="M214.0 209.0 Q214.0 232.0 196.95 304.45 L184.7 355.55 Q178.8 380.45 178.0 387.5 176.05 404.1 175.8 438.2 L175.55 496.3 Q174.95 528.45 172.0 544.1 168.3 564.0 160.0 564.0 151.7 564.0 150.05 551.05 149.5 546.95 149.7 541.95 L150.0 537.5 Q154.5 404.0 162.0 363.5 171.4 306.1 182.05 257.25 196.75 190.0 204.0 190.0 212.45 190.0 214.05 199.2 214.9 203.9 214.0 209.0" fill="#ffffff" fill-rule="evenodd" stroke="none"/>
      <path d="M214.0 209.0 Q214.0 232.0 196.95 304.45 L184.7 355.55 Q178.8 380.45 178.0 387.5 176.05 404.1 175.8 438.2 L175.55 496.3 Q174.95 528.45 172.0 544.1 168.3 564.0 160.0 564.0 151.7 564.0 150.05 551.05 149.5 546.95 149.7 541.95 L150.0 537.5 Q154.5 404.0 162.0 363.5 171.4 306.1 182.05 257.25 196.75 190.0 204.0 190.0 212.45 190.0 214.05 199.2 214.9 203.9 214.0 209.0 Z" fill="none" stroke="#ffffff" stroke-linecap="round" stroke-linejoin="round" stroke-width="1.0"/>
      <path d="M-26.0 935.5 Q-9.7 935.5 43.0 1010.35 69.4 1047.8 92.5 1085.75 92.5 1091.0 90.55 1094.75 87.45 1100.75 80.0 1100.75 78.65 1100.75 20.0 1025.7 -38.5 950.85 -38.5 949.75 -38.5 935.5 -26.0 935.5" fill="#ffffff" fill-rule="evenodd" stroke="none"/>
      <path d="M-26.0 935.5 Q-9.7 935.5 43.0 1010.35 69.4 1047.8 92.5 1085.75 92.5 1091.0 90.55 1094.75 87.45 1100.75 80.0 1100.75 78.65 1100.75 20.0 1025.7 -38.5 950.85 -38.5 949.75 -38.5 935.5 -26.0 935.5 Z" fill="none" stroke="#ffffff" stroke-linecap="round" stroke-linejoin="round" stroke-width="1.0"/>
      <path d="M37.5 1020.7 Q38.25 1021.5 39.0 1023.25 29.65 1038.85 -0.35 1054.15 -11.4 1059.8 -22.05 1063.7 -31.7 1067.25 -35.0 1067.25 -44.3 1067.25 -46.55 1064.8 -47.25 1064.0 -47.2 1062.95 L-47.0 1061.75 Q-47.0 1061.25 33.0 1019.25 36.15 1019.25 37.5 1020.7" fill="#ffffff" fill-rule="evenodd" stroke="none"/>
      <path d="M37.5 1020.7 Q38.25 1021.5 39.0 1023.25 29.65 1038.85 -0.35 1054.15 -11.4 1059.8 -22.05 1063.7 -31.7 1067.25 -35.0 1067.25 -44.3 1067.25 -46.55 1064.8 -47.25 1064.0 -47.2 1062.95 L-47.0 1061.75 Q-47.0 1061.25 33.0 1019.25 36.15 1019.25 37.5 1020.7 Z" fill="none" stroke="#ffffff" stroke-linecap="round" stroke-linejoin="round" stroke-width="1.0"/>
      <path d="M436.0 1042.25 L436.5 1042.8 Q437.0 1043.05 437.0 1046.0 437.0 1047.8 410.6 1050.9 382.2 1054.25 337.95 1057.3 222.75 1065.25 93.0 1065.25 70.3 1065.25 65.5 1062.8 63.95 1062.0 64.3 1060.95 L65.0 1059.75 Q65.0 1056.3 94.45 1054.35 L173.9 1051.35 Q343.25 1046.65 430.0 1041.25 L436.0 1042.25" fill="#ffffff" fill-rule="evenodd" stroke="none"/>
      <path d="M436.0 1042.25 L436.5 1042.8 Q437.0 1043.05 437.0 1046.0 437.0 1047.8 410.6 1050.9 382.2 1054.25 337.95 1057.3 222.75 1065.25 93.0 1065.25 70.3 1065.25 65.5 1062.8 63.95 1062.0 64.3 1060.95 L65.0 1059.75 Q65.0 1056.3 94.45 1054.35 L173.9 1051.35 Q343.25 1046.65 430.0 1041.25 L436.0 1042.25 Z" fill="none" stroke="#ffffff" stroke-linecap="round" stroke-linejoin="round" stroke-width="1.0"/>
      <path d="M360.5 628.55 Q361.0 628.8 361.0 631.75 361.0 641.0 345.95 721.95 330.15 807.05 321.0 842.5 309.3 887.55 299.4 945.75 294.5 974.35 283.0 1052.75 280.5 1054.25 278.0 1055.25 274.3 1053.0 273.35 1049.05 273.0 1047.6 273.0 1043.0 273.0 1026.8 288.9 943.5 304.8 860.0 313.0 833.5 315.45 817.55 320.0 781.6 324.35 747.2 327.35 728.65 337.25 666.85 355.0 627.0 L360.0 628.0 360.5 628.55" fill="#ffffff" fill-rule="evenodd" stroke="none"/>
      <path d="M360.5 628.55 Q361.0 628.8 361.0 631.75 361.0 641.0 345.95 721.95 330.15 807.05 321.0 842.5 309.3 887.55 299.4 945.75 294.5 974.35 283.0 1052.75 280.5 1054.25 278.0 1055.25 274.3 1053.0 273.35 1049.05 273.0 1047.6 273.0 1043.0 273.0 1026.8 288.9 943.5 304.8 860.0 313.0 833.5 315.45 817.55 320.0 781.6 324.35 747.2 327.35 728.65 337.25 666.85 355.0 627.0 L360.0 628.0 360.5 628.55 Z" fill="none" stroke="#ffffff" stroke-linecap="round" stroke-linejoin="round" stroke-width="1.0"/>
      <path d="M335.5 716.5 Q196.35 716.15 90.15 714.8 -14.85 713.5 -31.5 712.0 -32.5 714.75 -32.5 709.75 L-33.1 706.75 Q-32.5 707.5 -30.0 707.5 -5.5 708.25 151.0 710.0 335.0 712.0 336.5 713.5 L335.5 716.5" fill="#ffffff" fill-rule="evenodd" stroke="none"/>
      <path d="M335.5 716.5 Q196.35 716.15 90.15 714.8 -14.85 713.5 -31.5 712.0 -32.5 714.75 -32.5 709.75 L-33.1 706.75 Q-32.5 707.5 -30.0 707.5 -5.5 708.25 151.0 710.0 335.0 712.0 336.5 713.5 L335.5 716.5 Z" fill="none" stroke="#ffffff" stroke-linecap="round" stroke-linejoin="round" stroke-width="1.0"/>
      <path d="M312.5 713.5 Q273.3 737.45 219.6 766.9 164.05 797.35 111.6 823.45 -15.25 886.5 -46.0 886.5 -55.15 886.5 -56.5 884.5 -33.3 873.2 -2.6 861.65 7.7 857.75 50.75 842.55 82.7 831.25 101.5 823.3 128.05 812.05 147.5 800.0 184.3 777.25 233.3 748.65 296.8 711.5 302.0 711.5 310.5 711.5 312.5 713.5" fill="#ffffff" fill-rule="evenodd" stroke="none"/>
      <path d="M312.5 713.5 Q273.3 737.45 219.6 766.9 164.05 797.35 111.6 823.45 -15.25 886.5 -46.0 886.5 -55.15 886.5 -56.5 884.5 -33.3 873.2 -2.6 861.65 7.7 857.75 50.75 842.55 82.7 831.25 101.5 823.3 128.05 812.05 147.5 800.0 184.3 777.25 233.3 748.65 296.8 711.5 302.0 711.5 310.5 711.5 312.5 713.5 Z" fill="none" stroke="#ffffff" stroke-linecap="round" stroke-linejoin="round" stroke-width="1.0"/>
      <path d="M29.75 853.65 Q30.5 853.9 30.5 857.0 L28.5 884.55 Q26.5 910.7 26.5 917.0 26.5 922.0 30.5 984.5 30.5 989.8 26.0 1007.25 L24.0 1008.25 21.8 1007.25 Q21.5 1006.75 21.5 1003.25 21.5 1000.75 23.5 993.9 25.5 987.0 25.5 984.5 25.5 978.3 23.5 952.45 21.5 926.55 21.5 917.0 21.5 889.1 21.95 881.3 23.4 857.35 29.0 854.0 L29.75 853.65" fill="#ffffff" fill-rule="evenodd" stroke="none"/>
      <path d="M29.75 853.65 Q30.5 853.9 30.5 857.0 L28.5 884.55 Q26.5 910.7 26.5 917.0 26.5 922.0 30.5 984.5 30.5 989.8 26.0 1007.25 L24.0 1008.25 21.8 1007.25 Q21.5 1006.75 21.5 1003.25 21.5 1000.75 23.5 993.9 25.5 987.0 25.5 984.5 25.5 978.3 23.5 952.45 21.5 926.55 21.5 917.0 21.5 889.1 21.95 881.3 23.4 857.35 29.0 854.0 L29.75 853.65 Z" fill="none" stroke="#ffffff" stroke-linecap="round" stroke-linejoin="round" stroke-width="1.0"/>
      <path d="M440.3 364.55 Q440.5 364.7 440.5 367.75 440.5 394.7 323.15 472.85 282.3 500.05 234.1 528.8 195.55 551.8 176.0 562.0 L173.8 561.5 Q173.5 561.25 173.5 558.0 173.5 557.4 188.85 548.75 L227.45 526.95 Q291.25 490.3 330.0 462.5 L363.7 438.65 Q382.1 425.35 398.5 412.0 410.4 402.45 421.65 384.65 427.2 375.9 429.55 372.85 434.0 367.05 439.0 364.0 439.75 364.75 440.3 364.55" fill="#ffffff" fill-rule="evenodd" stroke="none"/>
      <path d="M440.3 364.55 Q440.5 364.7 440.5 367.75 440.5 394.7 323.15 472.85 282.3 500.05 234.1 528.8 195.55 551.8 176.0 562.0 L173.8 561.5 Q173.5 561.25 173.5 558.0 173.5 557.4 188.85 548.75 L227.45 526.95 Q291.25 490.3 330.0 462.5 L363.7 438.65 Q382.1 425.35 398.5 412.0 410.4 402.45 421.65 384.65 427.2 375.9 429.55 372.85 434.0 367.05 439.0 364.0 439.75 364.75 440.3 364.55 Z" fill="none" stroke="#ffffff" stroke-linecap="round" stroke-linejoin="round" stroke-width="1.0"/>
      <path d="M342.0 454.0 L345.0 454.0 Q347.4 478.75 356.55 549.05 364.5 615.25 364.5 649.0 364.5 655.0 363.0 658.0 L360.5 658.0 348.4 566.15 Q341.5 507.6 341.5 471.25 341.5 460.0 342.0 454.0" fill="#ffffff" fill-rule="evenodd" stroke="none"/>
      <path d="M342.0 454.0 L345.0 454.0 Q347.4 478.75 356.55 549.05 364.5 615.25 364.5 649.0 364.5 655.0 363.0 658.0 L360.5 658.0 348.4 566.15 Q341.5 507.6 341.5 471.25 341.5 460.0 342.0 454.0 Z" fill="none" stroke="#ffffff" stroke-linecap="round" stroke-linejoin="round" stroke-width="1.0"/>
      <path d="M168.5 404.55 Q169.0 404.8 169.0 407.75 169.0 407.95 151.6 416.6 129.05 428.15 107.9 440.3 37.35 480.65 -8.0 521.0 -10.65 520.1 -11.6 519.0 -13.0 517.45 -13.0 514.0 -13.0 494.05 70.65 447.8 98.3 432.5 130.0 417.2 155.7 404.75 161.0 403.0 L168.0 404.0 168.5 404.55" fill="#ffffff" fill-rule="evenodd" stroke="none"/>
      <path d="M168.5 404.55 Q169.0 404.8 169.0 407.75 169.0 407.95 151.6 416.6 129.05 428.15 107.9 440.3 37.35 480.65 -8.0 521.0 -10.65 520.1 -11.6 519.0 -13.0 517.45 -13.0 514.0 -13.0 494.05 70.65 447.8 98.3 432.5 130.0 417.2 155.7 404.75 161.0 403.0 L168.0 404.0 168.5 404.55 Z" fill="none" stroke="#ffffff" stroke-linecap="round" stroke-linejoin="round" stroke-width="1.0"/>
      <path d="M167.8 410.0 Q166.4 412.0 164.0 413.0 161.0 412.0 159.5 410.5 159.0 412.5 159.0 407.5 159.0 404.35 160.75 403.55 L164.0 403.0 Q167.2 404.25 169.0 407.0 169.0 408.35 167.8 410.0" fill="#ffffff" fill-rule="evenodd" stroke="none"/>
      <path d="M167.8 410.0 Q166.4 412.0 164.0 413.0 161.0 412.0 159.5 410.5 159.0 412.5 159.0 407.5 159.0 404.35 160.75 403.55 L164.0 403.0 Q167.2 404.25 169.0 407.0 169.0 408.35 167.8 410.0 Z" fill="none" stroke="#ffffff" stroke-linecap="round" stroke-linejoin="round" stroke-width="1.0"/>
      <path d="M171.0 405.0 Q185.0 405.0 268.05 429.05 298.1 437.7 324.2 445.8 349.0 453.5 349.0 454.0 349.0 456.9 348.7 456.8 348.15 456.65 348.0 457.0 L347.0 458.4 Q346.15 459.0 343.0 459.0 324.0 459.0 246.55 436.4 179.85 416.95 157.0 408.0 158.1 406.9 162.7 405.95 167.15 405.0 171.0 405.0" fill="#ffffff" fill-rule="evenodd" stroke="none"/>
      <path d="M171.0 405.0 Q185.0 405.0 268.05 429.05 298.1 437.7 324.2 445.8 349.0 453.5 349.0 454.0 349.0 456.9 348.7 456.8 348.15 456.65 348.0 457.0 L347.0 458.4 Q346.15 459.0 343.0 459.0 324.0 459.0 246.55 436.4 179.85 416.95 157.0 408.0 158.1 406.9 162.7 405.95 167.15 405.0 171.0 405.0 Z" fill="none" stroke="#ffffff" stroke-linecap="round" stroke-linejoin="round" stroke-width="1.0"/>
      <path d="M430.0 364.0 L430.5 364.55 Q431.0 364.8 431.0 367.75 431.0 370.05 421.0 373.15 414.9 375.0 395.05 379.9 346.75 391.8 320.5 402.0 L287.95 417.95 Q256.9 433.0 252.0 433.0 248.7 433.0 247.45 432.3 L245.5 430.5 Q245.0 432.5 245.0 427.5 245.0 423.1 267.7 412.95 287.5 404.1 320.3 392.7 350.4 382.25 379.45 373.75 408.9 365.15 422.0 363.0 L430.0 364.0" fill="#ffffff" fill-rule="evenodd" stroke="none"/>
      <path d="M430.0 364.0 L430.5 364.55 Q431.0 364.8 431.0 367.75 431.0 370.05 421.0 373.15 414.9 375.0 395.05 379.9 346.75 391.8 320.5 402.0 L287.95 417.95 Q256.9 433.0 252.0 433.0 248.7 433.0 247.45 432.3 L245.5 430.5 Q245.0 432.5 245.0 427.5 245.0 423.1 267.7 412.95 287.5 404.1 320.3 392.7 350.4 382.25 379.45 373.75 408.9 365.15 422.0 363.0 L430.0 364.0 Z" fill="none" stroke="#ffffff" stroke-linecap="round" stroke-linejoin="round" stroke-width="1.0"/>
      <path d="M438.5 194.55 Q439.0 194.8 439.0 197.75 439.0 200.8 409.9 216.5 375.1 235.3 368.0 240.5 352.05 253.65 337.3 264.9 308.3 287.0 301.0 287.0 L297.0 286.0 Q295.75 285.4 295.45 285.05 295.0 284.65 295.0 281.5 295.0 275.2 354.9 237.55 379.2 222.25 401.2 209.7 424.1 196.55 433.0 193.0 L438.0 194.0 438.5 194.55" fill="#ffffff" fill-rule="evenodd" stroke="none"/>
      <path d="M438.5 194.55 Q439.0 194.8 439.0 197.75 439.0 200.8 409.9 216.5 375.1 235.3 368.0 240.5 352.05 253.65 337.3 264.9 308.3 287.0 301.0 287.0 L297.0 286.0 Q295.75 285.4 295.45 285.05 295.0 284.65 295.0 281.5 295.0 275.2 354.9 237.55 379.2 222.25 401.2 209.7 424.1 196.55 433.0 193.0 L438.0 194.0 438.5 194.55 Z" fill="none" stroke="#ffffff" stroke-linecap="round" stroke-linejoin="round" stroke-width="1.0"/>
      <path d="M292.0 -20.5 Q303.6 -20.5 306.8 31.35 307.65 45.2 308.45 75.35 309.15 102.85 310.0 113.0 311.4 129.8 319.65 180.6 326.5 222.65 326.5 248.0 L326.95 253.3 Q327.25 258.75 326.65 263.0 324.65 276.5 314.0 276.5 304.55 276.5 295.95 226.65 288.7 184.35 287.5 147.5 287.3 141.15 283.3 81.8 279.5 24.9 279.5 17.75 278.45 6.7 279.45 -2.5 281.5 -20.5 292.0 -20.5" fill="#ffffff" fill-rule="evenodd" stroke="none"/>
      <path d="M292.0 -20.5 Q303.6 -20.5 306.8 31.35 307.65 45.2 308.45 75.35 309.15 102.85 310.0 113.0 311.4 129.8 319.65 180.6 326.5 222.65 326.5 248.0 L326.95 253.3 Q327.25 258.75 326.65 263.0 324.65 276.5 314.0 276.5 304.55 276.5 295.95 226.65 288.7 184.35 287.5 147.5 287.3 141.15 283.3 81.8 279.5 24.9 279.5 17.75 278.45 6.7 279.45 -2.5 281.5 -20.5 292.0 -20.5 Z" fill="none" stroke="#ffffff" stroke-linecap="round" stroke-linejoin="round" stroke-width="1.0"/>
      <path d="M279.75 67.75 Q273.5 65.0 249.0 65.0 235.3 65.0 217.8 67.75 L183.95 73.75 Q134.55 82.5 85.0 82.5 74.45 82.5 70.95 76.5 69.5 74.0 69.5 69.75 69.5 64.1 72.85 61.15 76.65 57.8 86.7 55.9 103.25 52.75 169.0 50.5 170.75 50.5 193.65 45.0 221.65 39.5 249.0 39.5 284.8 39.5 295.45 46.05 299.3 48.4 300.2 51.85 300.5 52.9 300.5 57.25 300.5 61.9 298.0 65.55 294.65 70.5 288.0 70.5 284.5 70.5 282.9 69.65 L279.75 67.75" fill="#ffffff" fill-rule="evenodd" stroke="none"/>
      <path d="M279.75 67.75 Q273.5 65.0 249.0 65.0 235.3 65.0 217.8 67.75 L183.95 73.75 Q134.55 82.5 85.0 82.5 74.45 82.5 70.95 76.5 69.5 74.0 69.5 69.75 69.5 64.1 72.85 61.15 76.65 57.8 86.7 55.9 103.25 52.75 169.0 50.5 170.75 50.5 193.65 45.0 221.65 39.5 249.0 39.5 284.8 39.5 295.45 46.05 299.3 48.4 300.2 51.85 300.5 52.9 300.5 57.25 300.5 61.9 298.0 65.55 294.65 70.5 288.0 70.5 284.5 70.5 282.9 69.65 L279.75 67.75 Z" fill="none" stroke="#ffffff" stroke-linecap="round" stroke-linejoin="round" stroke-width="1.0"/>
      <path d="M189.55 767.05 Q193.45 763.5 199.0 763.5 314.5 869.5 314.5 870.25 314.5 876.7 309.05 880.05 304.95 882.5 300.0 882.5 282.75 882.5 232.55 830.0 215.75 812.45 199.55 793.5 185.5 777.0 185.5 776.0 185.5 770.65 189.55 767.05" fill="#ffffff" fill-rule="evenodd" stroke="none"/>
      <path d="M189.55 767.05 Q193.45 763.5 199.0 763.5 314.5 869.5 314.5 870.25 314.5 876.7 309.05 880.05 304.95 882.5 300.0 882.5 282.75 882.5 232.55 830.0 215.75 812.45 199.55 793.5 185.5 777.0 185.5 776.0 185.5 770.65 189.55 767.05 Z" fill="none" stroke="#ffffff" stroke-linecap="round" stroke-linejoin="round" stroke-width="1.0"/>
      <path d="M190.55 561.5 Q192.5 564.9 192.5 568.25 192.5 572.15 164.55 595.75 139.5 616.9 102.05 645.5 65.15 673.7 37.15 693.2 6.55 714.5 2.0 714.5 -10.5 714.5 -10.5 701.0 -10.5 693.65 31.85 661.5 45.05 651.45 62.6 638.9 L80.0 626.5 Q105.0 606.25 127.45 589.15 171.5 555.5 179.0 555.5 187.05 555.5 190.55 561.5" fill="#ffffff" fill-rule="evenodd" stroke="none"/>
      <path d="M190.55 561.5 Q192.5 564.9 192.5 568.25 192.5 572.15 164.55 595.75 139.5 616.9 102.05 645.5 65.15 673.7 37.15 693.2 6.55 714.5 2.0 714.5 -10.5 714.5 -10.5 701.0 -10.5 693.65 31.85 661.5 45.05 651.45 62.6 638.9 L80.0 626.5 Q105.0 606.25 127.45 589.15 171.5 555.5 179.0 555.5 187.05 555.5 190.55 561.5 Z" fill="none" stroke="#ffffff" stroke-linecap="round" stroke-linejoin="round" stroke-width="1.0"/>
      <path d="M176.55 537.5 Q178.5 540.9 178.5 544.25 178.5 546.25 177.5 554.3 176.25 564.65 174.45 573.5 169.1 600.5 162.0 600.5 151.65 600.5 149.55 587.0 148.9 582.75 149.15 577.3 L149.5 572.0 Q149.5 531.5 165.0 531.5 173.05 531.5 176.55 537.5" fill="#ffffff" fill-rule="evenodd" stroke="none"/>
      <path d="M176.55 537.5 Q178.5 540.9 178.5 544.25 178.5 546.25 177.5 554.3 176.25 564.65 174.45 573.5 169.1 600.5 162.0 600.5 151.65 600.5 149.55 587.0 148.9 582.75 149.15 577.3 L149.5 572.0 Q149.5 531.5 165.0 531.5 173.05 531.5 176.55 537.5 Z" fill="none" stroke="#ffffff" stroke-linecap="round" stroke-linejoin="round" stroke-width="1.0"/>
      <path d="M1938.6 -15.5 Q1931.05 -15.5 1910.85 4.2 1898.65 16.05 1864.75 53.05 1827.55 93.7 1805.6 115.9 1769.15 152.85 1738.6 177.5 1697.55 210.7 1586.95 290.8 L1520.65 339.1 Q1493.1 359.4 1493.1 361.0 1493.35 369.5 1500.6 369.5 1520.3 369.5 1621.55 291.45 1651.8 268.15 1699.95 229.55 1747.7 191.2 1757.1 184.0 1780.75 165.85 1807.9 135.45 1836.7 101.5 1850.6 86.5 1858.75 77.75 1906.05 34.3 1946.1 -2.55 1946.1 -5.75 1946.1 -15.5 1938.6 -15.5" fill="#ffffff" fill-rule="evenodd" stroke="none"/>
      <path d="M1938.6 -15.5 Q1931.05 -15.5 1910.85 4.2 1898.65 16.05 1864.75 53.05 1827.55 93.7 1805.6 115.9 1769.15 152.85 1738.6 177.5 1697.55 210.7 1586.95 290.8 L1520.65 339.1 Q1493.1 359.4 1493.1 361.0 1493.35 369.5 1500.6 369.5 1520.3 369.5 1621.55 291.45 1651.8 268.15 1699.95 229.55 1747.7 191.2 1757.1 184.0 1780.75 165.85 1807.9 135.45 1836.7 101.5 1850.6 86.5 1858.75 77.75 1906.05 34.3 1946.1 -2.55 1946.1 -5.75 1946.1 -15.5 1938.6 -15.5 Z" fill="none" stroke="#ffffff" stroke-linecap="round" stroke-linejoin="round" stroke-width="1.0"/>
      <path d="M1733.6 193.75 Q1733.6 201.25 1834.15 234.55 1885.6 251.55 1948.6 271.0 1951.5 270.05 1952.2 269.4 1953.6 268.1 1953.6 264.75 1953.6 260.05 1868.6 230.65 1797.0 205.8 1741.6 189.0 L1734.6 190.0 1734.1 190.55 Q1733.6 190.8 1733.6 193.75" fill="#ffffff" fill-rule="evenodd" stroke="none"/>
      <path d="M1733.6 193.75 Q1733.6 201.25 1834.15 234.55 1885.6 251.55 1948.6 271.0 1951.5 270.05 1952.2 269.4 1953.6 268.1 1953.6 264.75 1953.6 260.05 1868.6 230.65 1797.0 205.8 1741.6 189.0 L1734.6 190.0 1734.1 190.55 Q1733.6 190.8 1733.6 193.75 Z" fill="none" stroke="#ffffff" stroke-linecap="round" stroke-linejoin="round" stroke-width="1.0"/>
      <path d="M1730.35 572.4 Q1756.1 563.35 1809.6 554.0 1846.95 547.55 1893.75 536.9 1961.6 521.45 1961.6 514.75 1961.6 510.8 1960.95 510.0 1960.2 509.0 1956.6 509.0 1939.05 509.0 1826.15 538.95 1716.4 568.05 1656.1 588.0 1615.15 601.6 1566.4 627.65 L1527.4 649.05 Q1504.45 661.75 1489.6 669.0 L1492.2 673.3 Q1493.65 675.0 1497.6 675.0 1515.9 663.9 1547.15 648.05 1609.9 616.35 1676.6 593.0 1690.85 588.05 1707.15 581.4 1723.65 574.7 1730.35 572.4" fill="#ffffff" fill-rule="evenodd" stroke="none"/>
      <path d="M1730.35 572.4 Q1756.1 563.35 1809.6 554.0 1846.95 547.55 1893.75 536.9 1961.6 521.45 1961.6 514.75 1961.6 510.8 1960.95 510.0 1960.2 509.0 1956.6 509.0 1939.05 509.0 1826.15 538.95 1716.4 568.05 1656.1 588.0 1615.15 601.6 1566.4 627.65 L1527.4 649.05 Q1504.45 661.75 1489.6 669.0 L1492.2 673.3 Q1493.65 675.0 1497.6 675.0 1515.9 663.9 1547.15 648.05 1609.9 616.35 1676.6 593.0 1690.85 588.05 1707.15 581.4 1723.65 574.7 1730.35 572.4 Z" fill="none" stroke="#ffffff" stroke-linecap="round" stroke-linejoin="round" stroke-width="1.0"/>
      <path d="M1718.6 209.0 Q1718.6 232.0 1735.65 304.45 L1747.9 355.55 Q1753.8 380.45 1754.6 387.5 1756.55 404.1 1756.8 438.2 L1757.05 496.3 Q1757.65 528.45 1760.6 544.1 1764.3 564.0 1772.6 564.0 1780.9 564.0 1782.55 551.05 1783.1 546.95 1782.9 541.95 L1782.6 537.5 Q1778.1 404.0 1770.6 363.5 1761.2 306.1 1750.55 257.25 1735.85 190.0 1728.6 190.0 1720.15 190.0 1718.55 199.2 1717.7 203.9 1718.6 209.0" fill="#ffffff" fill-rule="evenodd" stroke="none"/>
      <path d="M1718.6 209.0 Q1718.6 232.0 1735.65 304.45 L1747.9 355.55 Q1753.8 380.45 1754.6 387.5 1756.55 404.1 1756.8 438.2 L1757.05 496.3 Q1757.65 528.45 1760.6 544.1 1764.3 564.0 1772.6 564.0 1780.9 564.0 1782.55 551.05 1783.1 546.95 1782.9 541.95 L1782.6 537.5 Q1778.1 404.0 1770.6 363.5 1761.2 306.1 1750.55 257.25 1735.85 190.0 1728.6 190.0 1720.15 190.0 1718.55 199.2 1717.7 203.9 1718.6 209.0 Z" fill="none" stroke="#ffffff" stroke-linecap="round" stroke-linejoin="round" stroke-width="1.0"/>
      <path d="M1958.6 935.5 Q1942.3 935.5 1889.6 1010.35 1863.2 1047.8 1840.1 1085.75 1840.1 1091.0 1842.05 1094.75 1845.15 1100.75 1852.6 1100.75 1853.95 1100.75 1912.6 1025.7 1971.1 950.85 1971.1 949.75 1971.1 935.5 1958.6 935.5" fill="#ffffff" fill-rule="evenodd" stroke="none"/>
      <path d="M1958.6 935.5 Q1942.3 935.5 1889.6 1010.35 1863.2 1047.8 1840.1 1085.75 1840.1 1091.0 1842.05 1094.75 1845.15 1100.75 1852.6 1100.75 1853.95 1100.75 1912.6 1025.7 1971.1 950.85 1971.1 949.75 1971.1 935.5 1958.6 935.5 Z" fill="none" stroke="#ffffff" stroke-linecap="round" stroke-linejoin="round" stroke-width="1.0"/>
      <path d="M1895.1 1020.7 Q1894.35 1021.5 1893.6 1023.25 1902.95 1038.85 1932.95 1054.15 1944.0 1059.8 1954.65 1063.7 1964.3 1067.25 1967.6 1067.25 1976.9 1067.25 1979.15 1064.8 1979.85 1064.0 1979.8 1062.95 L1979.6 1061.75 Q1979.6 1061.25 1899.6 1019.25 1896.45 1019.25 1895.1 1020.7" fill="#ffffff" fill-rule="evenodd" stroke="none"/>
      <path d="M1895.1 1020.7 Q1894.35 1021.5 1893.6 1023.25 1902.95 1038.85 1932.95 1054.15 1944.0 1059.8 1954.65 1063.7 1964.3 1067.25 1967.6 1067.25 1976.9 1067.25 1979.15 1064.8 1979.85 1064.0 1979.8 1062.95 L1979.6 1061.75 Q1979.6 1061.25 1899.6 1019.25 1896.45 1019.25 1895.1 1020.7 Z" fill="none" stroke="#ffffff" stroke-linecap="round" stroke-linejoin="round" stroke-width="1.0"/>
      <path d="M1496.6 1042.25 L1496.1 1042.8 Q1495.6 1043.05 1495.6 1046.0 1495.6 1047.8 1522.0 1050.9 1550.4 1054.25 1594.65 1057.3 1709.85 1065.25 1839.6 1065.25 1862.3 1065.25 1867.1 1062.8 1868.65 1062.0 1868.3 1060.95 L1867.6 1059.75 Q1867.6 1056.3 1838.15 1054.35 L1758.7 1051.35 Q1589.35 1046.65 1502.6 1041.25 L1496.6 1042.25" fill="#ffffff" fill-rule="evenodd" stroke="none"/>
      <path d="M1496.6 1042.25 L1496.1 1042.8 Q1495.6 1043.05 1495.6 1046.0 1495.6 1047.8 1522.0 1050.9 1550.4 1054.25 1594.65 1057.3 1709.85 1065.25 1839.6 1065.25 1862.3 1065.25 1867.1 1062.8 1868.65 1062.0 1868.3 1060.95 L1867.6 1059.75 Q1867.6 1056.3 1838.15 1054.35 L1758.7 1051.35 Q1589.35 1046.65 1502.6 1041.25 L1496.6 1042.25 Z" fill="none" stroke="#ffffff" stroke-linecap="round" stroke-linejoin="round" stroke-width="1.0"/>
      <path d="M1572.1 628.55 Q1571.6 628.8 1571.6 631.75 1571.6 641.0 1586.65 721.95 1602.45 807.05 1611.6 842.5 1623.3 887.55 1633.2 945.75 1638.1 974.35 1649.6 1052.75 1652.1 1054.25 1654.6 1055.25 1658.3 1053.0 1659.25 1049.05 1659.6 1047.6 1659.6 1043.0 1659.6 1026.8 1643.7 943.5 1627.8 860.0 1619.6 833.5 1617.15 817.55 1612.6 781.6 1608.25 747.2 1605.25 728.65 1595.35 666.85 1577.6 627.0 L1572.6 628.0 1572.1 628.55" fill="#ffffff" fill-rule="evenodd" stroke="none"/>
      <path d="M1572.1 628.55 Q1571.6 628.8 1571.6 631.75 1571.6 641.0 1586.65 721.95 1602.45 807.05 1611.6 842.5 1623.3 887.55 1633.2 945.75 1638.1 974.35 1649.6 1052.75 1652.1 1054.25 1654.6 1055.25 1658.3 1053.0 1659.25 1049.05 1659.6 1047.6 1659.6 1043.0 1659.6 1026.8 1643.7 943.5 1627.8 860.0 1619.6 833.5 1617.15 817.55 1612.6 781.6 1608.25 747.2 1605.25 728.65 1595.35 666.85 1577.6 627.0 L1572.6 628.0 1572.1 628.55 Z" fill="none" stroke="#ffffff" stroke-linecap="round" stroke-linejoin="round" stroke-width="1.0"/>
      <path d="M1597.1 716.5 Q1736.25 716.15 1842.45 714.8 1947.45 713.5 1964.1 712.0 1965.1 714.75 1965.1 709.75 L1965.7 706.75 Q1965.1 707.5 1962.6 707.5 1938.1 708.25 1781.6 710.0 1597.6 712.0 1596.1 713.5 L1597.1 716.5" fill="#ffffff" fill-rule="evenodd" stroke="none"/>
      <path d="M1597.1 716.5 Q1736.25 716.15 1842.45 714.8 1947.45 713.5 1964.1 712.0 1965.1 714.75 1965.1 709.75 L1965.7 706.75 Q1965.1 707.5 1962.6 707.5 1938.1 708.25 1781.6 710.0 1597.6 712.0 1596.1 713.5 L1597.1 716.5 Z" fill="none" stroke="#ffffff" stroke-linecap="round" stroke-linejoin="round" stroke-width="1.0"/>
      <path d="M1620.1 713.5 Q1659.3 737.45 1713.0 766.9 1768.55 797.35 1821.0 823.45 1947.85 886.5 1978.6 886.5 1987.75 886.5 1989.1 884.5 1965.9 873.2 1935.2 861.65 1924.9 857.75 1881.85 842.55 1849.9 831.25 1831.1 823.3 1804.55 812.05 1785.1 800.0 1748.3 777.25 1699.3 748.65 1635.8 711.5 1630.6 711.5 1622.1 711.5 1620.1 713.5" fill="#ffffff" fill-rule="evenodd" stroke="none"/>
      <path d="M1620.1 713.5 Q1659.3 737.45 1713.0 766.9 1768.55 797.35 1821.0 823.45 1947.85 886.5 1978.6 886.5 1987.75 886.5 1989.1 884.5 1965.9 873.2 1935.2 861.65 1924.9 857.75 1881.85 842.55 1849.9 831.25 1831.1 823.3 1804.55 812.05 1785.1 800.0 1748.3 777.25 1699.3 748.65 1635.8 711.5 1630.6 711.5 1622.1 711.5 1620.1 713.5 Z" fill="none" stroke="#ffffff" stroke-linecap="round" stroke-linejoin="round" stroke-width="1.0"/>
      <path d="M1902.85 853.65 Q1902.1 853.9 1902.1 857.0 L1904.1 884.55 Q1906.1 910.7 1906.1 917.0 1906.1 922.0 1902.1 984.5 1902.1 989.8 1906.6 1007.25 L1908.6 1008.25 1910.8 1007.25 Q1911.1 1006.75 1911.1 1003.25 1911.1 1000.75 1909.1 993.9 1907.1 987.0 1907.1 984.5 1907.1 978.3 1909.1 952.45 1911.1 926.55 1911.1 917.0 1911.1 889.1 1910.65 881.3 1909.2 857.35 1903.6 854.0 L1902.85 853.65" fill="#ffffff" fill-rule="evenodd" stroke="none"/>
      <path d="M1902.85 853.65 Q1902.1 853.9 1902.1 857.0 L1904.1 884.55 Q1906.1 910.7 1906.1 917.0 1906.1 922.0 1902.1 984.5 1902.1 989.8 1906.6 1007.25 L1908.6 1008.25 1910.8 1007.25 Q1911.1 1006.75 1911.1 1003.25 1911.1 1000.75 1909.1 993.9 1907.1 987.0 1907.1 984.5 1907.1 978.3 1909.1 952.45 1911.1 926.55 1911.1 917.0 1911.1 889.1 1910.65 881.3 1909.2 857.35 1903.6 854.0 L1902.85 853.65 Z" fill="none" stroke="#ffffff" stroke-linecap="round" stroke-linejoin="round" stroke-width="1.0"/>
      <path d="M1492.3 364.55 Q1492.1 364.7 1492.1 367.75 1492.1 394.7 1609.45 472.85 1650.3 500.05 1698.5 528.8 1737.05 551.8 1756.6 562.0 L1758.8 561.5 Q1759.1 561.25 1759.1 558.0 1759.1 557.4 1743.75 548.75 L1705.15 526.95 Q1641.35 490.3 1602.6 462.5 L1568.9 438.65 Q1550.5 425.35 1534.1 412.0 1522.2 402.45 1510.95 384.65 1505.4 375.9 1503.05 372.85 1498.6 367.05 1493.6 364.0 1492.85 364.75 1492.3 364.55" fill="#ffffff" fill-rule="evenodd" stroke="none"/>
      <path d="M1492.3 364.55 Q1492.1 364.7 1492.1 367.75 1492.1 394.7 1609.45 472.85 1650.3 500.05 1698.5 528.8 1737.05 551.8 1756.6 562.0 L1758.8 561.5 Q1759.1 561.25 1759.1 558.0 1759.1 557.4 1743.75 548.75 L1705.15 526.95 Q1641.35 490.3 1602.6 462.5 L1568.9 438.65 Q1550.5 425.35 1534.1 412.0 1522.2 402.45 1510.95 384.65 1505.4 375.9 1503.05 372.85 1498.6 367.05 1493.6 364.0 1492.85 364.75 1492.3 364.55 Z" fill="none" stroke="#ffffff" stroke-linecap="round" stroke-linejoin="round" stroke-width="1.0"/>
      <path d="M1590.6 454.0 L1587.6 454.0 Q1585.2 478.75 1576.05 549.05 1568.1 615.25 1568.1 649.0 1568.1 655.0 1569.6 658.0 L1572.1 658.0 1584.2 566.15 Q1591.1 507.6 1591.1 471.25 1591.1 460.0 1590.6 454.0" fill="#ffffff" fill-rule="evenodd" stroke="none"/>
      <path d="M1590.6 454.0 L1587.6 454.0 Q1585.2 478.75 1576.05 549.05 1568.1 615.25 1568.1 649.0 1568.1 655.0 1569.6 658.0 L1572.1 658.0 1584.2 566.15 Q1591.1 507.6 1591.1 471.25 1591.1 460.0 1590.6 454.0 Z" fill="none" stroke="#ffffff" stroke-linecap="round" stroke-linejoin="round" stroke-width="1.0"/>
      <path d="M1764.1 404.55 Q1763.6 404.8 1763.6 407.75 1763.6 407.95 1781.0 416.6 1803.55 428.15 1824.7 440.3 1895.25 480.65 1940.6 521.0 1943.25 520.1 1944.2 519.0 1945.6 517.45 1945.6 514.0 1945.6 494.05 1861.95 447.8 1834.3 432.5 1802.6 417.2 1776.9 404.75 1771.6 403.0 L1764.6 404.0 1764.1 404.55" fill="#ffffff" fill-rule="evenodd" stroke="none"/>
      <path d="M1764.1 404.55 Q1763.6 404.8 1763.6 407.75 1763.6 407.95 1781.0 416.6 1803.55 428.15 1824.7 440.3 1895.25 480.65 1940.6 521.0 1943.25 520.1 1944.2 519.0 1945.6 517.45 1945.6 514.0 1945.6 494.05 1861.95 447.8 1834.3 432.5 1802.6 417.2 1776.9 404.75 1771.6 403.0 L1764.6 404.0 1764.1 404.55 Z" fill="none" stroke="#ffffff" stroke-linecap="round" stroke-linejoin="round" stroke-width="1.0"/>
      <path d="M1764.8 410.0 Q1766.2 412.0 1768.6 413.0 1771.6 412.0 1773.1 410.5 1773.6 412.5 1773.6 407.5 1773.6 404.35 1771.85 403.55 L1768.6 403.0 Q1765.4 404.25 1763.6 407.0 1763.6 408.35 1764.8 410.0" fill="#ffffff" fill-rule="evenodd" stroke="none"/>
      <path d="M1764.8 410.0 Q1766.2 412.0 1768.6 413.0 1771.6 412.0 1773.1 410.5 1773.6 412.5 1773.6 407.5 1773.6 404.35 1771.85 403.55 L1768.6 403.0 Q1765.4 404.25 1763.6 407.0 1763.6 408.35 1764.8 410.0 Z" fill="none" stroke="#ffffff" stroke-linecap="round" stroke-linejoin="round" stroke-width="1.0"/>
      <path d="M1761.6 405.0 Q1747.6 405.0 1664.55 429.05 1634.5 437.7 1608.4 445.8 1583.6 453.5 1583.6 454.0 1583.6 456.9 1583.9 456.8 1584.45 456.65 1584.6 457.0 L1585.6 458.4 Q1586.45 459.0 1589.6 459.0 1608.6 459.0 1686.05 436.4 1752.75 416.95 1775.6 408.0 1774.5 406.9 1769.9 405.95 L1761.6 405.0" fill="#ffffff" fill-rule="evenodd" stroke="none"/>
      <path d="M1761.6 405.0 Q1747.6 405.0 1664.55 429.05 1634.5 437.7 1608.4 445.8 1583.6 453.5 1583.6 454.0 1583.6 456.9 1583.9 456.8 1584.45 456.65 1584.6 457.0 L1585.6 458.4 Q1586.45 459.0 1589.6 459.0 1608.6 459.0 1686.05 436.4 1752.75 416.95 1775.6 408.0 1774.5 406.9 1769.9 405.95 L1761.6 405.0 Z" fill="none" stroke="#ffffff" stroke-linecap="round" stroke-linejoin="round" stroke-width="1.0"/>
      <path d="M1502.6 364.0 L1502.1 364.55 Q1501.6 364.8 1501.6 367.75 1501.6 370.05 1511.6 373.15 1517.7 375.0 1537.55 379.9 1585.85 391.8 1612.1 402.0 L1644.65 417.95 Q1675.7 433.0 1680.6 433.0 1683.9 433.0 1685.15 432.3 L1687.1 430.5 Q1687.6 432.5 1687.6 427.5 1687.6 423.1 1664.9 412.95 1645.1 404.1 1612.3 392.7 1582.2 382.25 1553.15 373.75 1523.7 365.15 1510.6 363.0 L1502.6 364.0" fill="#ffffff" fill-rule="evenodd" stroke="none"/>
      <path d="M1502.6 364.0 L1502.1 364.55 Q1501.6 364.8 1501.6 367.75 1501.6 370.05 1511.6 373.15 1517.7 375.0 1537.55 379.9 1585.85 391.8 1612.1 402.0 L1644.65 417.95 Q1675.7 433.0 1680.6 433.0 1683.9 433.0 1685.15 432.3 L1687.1 430.5 Q1687.6 432.5 1687.6 427.5 1687.6 423.1 1664.9 412.95 1645.1 404.1 1612.3 392.7 1582.2 382.25 1553.15 373.75 1523.7 365.15 1510.6 363.0 L1502.6 364.0 Z" fill="none" stroke="#ffffff" stroke-linecap="round" stroke-linejoin="round" stroke-width="1.0"/>
      <path d="M1494.1 194.55 Q1493.6 194.8 1493.6 197.75 1493.6 200.8 1522.7 216.5 1557.5 235.3 1564.6 240.5 1580.55 253.65 1595.3 264.9 1624.3 287.0 1631.6 287.0 L1635.6 286.0 Q1636.85 285.4 1637.15 285.05 1637.6 284.65 1637.6 281.5 1637.6 275.2 1577.7 237.55 1553.4 222.25 1531.4 209.7 1508.5 196.55 1499.6 193.0 L1494.6 194.0 1494.1 194.55" fill="#ffffff" fill-rule="evenodd" stroke="none"/>
      <path d="M1494.1 194.55 Q1493.6 194.8 1493.6 197.75 1493.6 200.8 1522.7 216.5 1557.5 235.3 1564.6 240.5 1580.55 253.65 1595.3 264.9 1624.3 287.0 1631.6 287.0 L1635.6 286.0 Q1636.85 285.4 1637.15 285.05 1637.6 284.65 1637.6 281.5 1637.6 275.2 1577.7 237.55 1553.4 222.25 1531.4 209.7 1508.5 196.55 1499.6 193.0 L1494.6 194.0 1494.1 194.55 Z" fill="none" stroke="#ffffff" stroke-linecap="round" stroke-linejoin="round" stroke-width="1.0"/>
      <path d="M1640.6 -20.5 Q1629.0 -20.5 1625.8 31.35 1624.95 45.2 1624.15 75.35 1623.45 102.85 1622.6 113.0 1621.2 129.8 1612.95 180.6 1606.1 222.65 1606.1 248.0 L1605.65 253.3 Q1605.35 258.75 1605.95 263.0 1607.95 276.5 1618.6 276.5 1628.05 276.5 1636.65 226.65 1643.9 184.35 1645.1 147.5 1645.3 141.15 1649.3 81.8 1653.1 24.9 1653.1 17.75 1654.15 6.7 1653.15 -2.5 1651.1 -20.5 1640.6 -20.5" fill="#ffffff" fill-rule="evenodd" stroke="none"/>
      <path d="M1640.6 -20.5 Q1629.0 -20.5 1625.8 31.35 1624.95 45.2 1624.15 75.35 1623.45 102.85 1622.6 113.0 1621.2 129.8 1612.95 180.6 1606.1 222.65 1606.1 248.0 L1605.65 253.3 Q1605.35 258.75 1605.95 263.0 1607.95 276.5 1618.6 276.5 1628.05 276.5 1636.65 226.65 1643.9 184.35 1645.1 147.5 1645.3 141.15 1649.3 81.8 1653.1 24.9 1653.1 17.75 1654.15 6.7 1653.15 -2.5 1651.1 -20.5 1640.6 -20.5 Z" fill="none" stroke="#ffffff" stroke-linecap="round" stroke-linejoin="round" stroke-width="1.0"/>
      <path d="M1652.85 67.75 Q1659.1 65.0 1683.6 65.0 1697.3 65.0 1714.8 67.75 L1748.65 73.75 Q1798.05 82.5 1847.6 82.5 1858.15 82.5 1861.65 76.5 1863.1 74.0 1863.1 69.75 1863.1 64.1 1859.75 61.15 1855.95 57.8 1845.9 55.9 1829.35 52.75 1763.6 50.5 1761.85 50.5 1738.95 45.0 1710.95 39.5 1683.6 39.5 1647.8 39.5 1637.15 46.05 1633.3 48.4 1632.4 51.85 1632.1 52.9 1632.1 57.25 1632.1 61.9 1634.6 65.55 1637.95 70.5 1644.6 70.5 1648.1 70.5 1649.7 69.65 1651.3 68.45 1652.85 67.75" fill="#ffffff" fill-rule="evenodd" stroke="none"/>
      <path d="M1652.85 67.75 Q1659.1 65.0 1683.6 65.0 1697.3 65.0 1714.8 67.75 L1748.65 73.75 Q1798.05 82.5 1847.6 82.5 1858.15 82.5 1861.65 76.5 1863.1 74.0 1863.1 69.75 1863.1 64.1 1859.75 61.15 1855.95 57.8 1845.9 55.9 1829.35 52.75 1763.6 50.5 1761.85 50.5 1738.95 45.0 1710.95 39.5 1683.6 39.5 1647.8 39.5 1637.15 46.05 1633.3 48.4 1632.4 51.85 1632.1 52.9 1632.1 57.25 1632.1 61.9 1634.6 65.55 1637.95 70.5 1644.6 70.5 1648.1 70.5 1649.7 69.65 1651.3 68.45 1652.85 67.75 Z" fill="none" stroke="#ffffff" stroke-linecap="round" stroke-linejoin="round" stroke-width="1.0"/>
      <path d="M1743.05 767.05 Q1739.15 763.5 1733.6 763.5 1618.1 869.5 1618.1 870.25 1618.1 876.7 1623.55 880.05 1627.65 882.5 1632.6 882.5 1649.85 882.5 1700.05 830.0 1716.85 812.45 1733.05 793.5 1747.1 777.0 1747.1 776.0 1747.1 770.65 1743.05 767.05" fill="#ffffff" fill-rule="evenodd" stroke="none"/>
      <path d="M1743.05 767.05 Q1739.15 763.5 1733.6 763.5 1618.1 869.5 1618.1 870.25 1618.1 876.7 1623.55 880.05 1627.65 882.5 1632.6 882.5 1649.85 882.5 1700.05 830.0 1716.85 812.45 1733.05 793.5 1747.1 777.0 1747.1 776.0 1747.1 770.65 1743.05 767.05 Z" fill="none" stroke="#ffffff" stroke-linecap="round" stroke-linejoin="round" stroke-width="1.0"/>
      <path d="M1742.05 561.5 Q1740.1 564.9 1740.1 568.25 1740.1 572.15 1768.05 595.75 1793.1 616.9 1830.55 645.5 1867.45 673.7 1895.45 693.2 1926.05 714.5 1930.6 714.5 1943.1 714.5 1943.1 701.0 1943.1 693.65 1900.75 661.5 1887.55 651.45 1870.0 638.9 L1852.6 626.5 Q1827.6 606.25 1805.15 589.15 1761.1 555.5 1753.6 555.5 1745.55 555.5 1742.05 561.5" fill="#ffffff" fill-rule="evenodd" stroke="none"/>
      <path d="M1742.05 561.5 Q1740.1 564.9 1740.1 568.25 1740.1 572.15 1768.05 595.75 1793.1 616.9 1830.55 645.5 1867.45 673.7 1895.45 693.2 1926.05 714.5 1930.6 714.5 1943.1 714.5 1943.1 701.0 1943.1 693.65 1900.75 661.5 1887.55 651.45 1870.0 638.9 L1852.6 626.5 Q1827.6 606.25 1805.15 589.15 1761.1 555.5 1753.6 555.5 1745.55 555.5 1742.05 561.5 Z" fill="none" stroke="#ffffff" stroke-linecap="round" stroke-linejoin="round" stroke-width="1.0"/>
      <path d="M1756.05 537.5 Q1754.1 540.9 1754.1 544.25 1754.1 546.25 1755.1 554.3 1756.35 564.65 1758.15 573.5 1763.5 600.5 1770.6 600.5 1780.95 600.5 1783.05 587.0 1783.7 582.75 1783.45 577.3 L1783.1 572.0 Q1783.1 531.5 1767.6 531.5 1759.55 531.5 1756.05 537.5" fill="#ffffff" fill-rule="evenodd" stroke="none"/>
      <path d="M1756.05 537.5 Q1754.1 540.9 1754.1 544.25 1754.1 546.25 1755.1 554.3 1756.35 564.65 1758.15 573.5 1763.5 600.5 1770.6 600.5 1780.95 600.5 1783.05 587.0 1783.7 582.75 1783.45 577.3 L1783.1 572.0 Q1783.1 531.5 1767.6 531.5 1759.55 531.5 1756.05 537.5 Z" fill="none" stroke="#ffffff" stroke-linecap="round" stroke-linejoin="round" stroke-width="1.0"/>
    </g>
  </defs>
</svg>
